<svg xmlns="http://www.w3.org/2000/svg" width="12.093" height="23.35" viewBox="0 0 12.093 23.35">
  <metadata><?xpacket begin="﻿" id="W5M0MpCehiHzreSzNTczkc9d"?>
<x:xmpmeta xmlns:x="adobe:ns:meta/" x:xmptk="Adobe XMP Core 5.6-c142 79.160924, 2017/07/13-01:06:39        ">
   <rdf:RDF xmlns:rdf="http://www.w3.org/1999/02/22-rdf-syntax-ns#">
      <rdf:Description rdf:about=""/>
   </rdf:RDF>
</x:xmpmeta>
                                                                                                    
                                                                                                    
                                                                                                    
                                                                                                    
                                                                                                    
                                                                                                    
                                                                                                    
                                                                                                    
                                                                                                    
                                                                                                    
                                                                                                    
                                                                                                    
                                                                                                    
                                                                                                    
                                                                                                    
                                                                                                    
                                                                                                    
                                                                                                    
                                                                                                    
                                                                                                    
                           
<?xpacket end="w"?></metadata>
<defs>
    <style>
      .cls-1 {
        fill: #fff;
        fill-rule: evenodd;
      }
    </style>
  </defs>
  <path id="facebook" class="cls-1" d="M536.117,2112.05h2.1l-0.011,2.26h-1.947a0.927,0.927,0,0,0-1.047.92v3.58h3.792l-0.529,2.26H535.2v11.29h-2.25l0-11.29h-2.99l-0.006-2.26h3v-3.51a2.988,2.988,0,0,1,3.166-3.25m2.1,0h0m-2.105-1.51h0a5.146,5.146,0,0,0-2.594.69,4.415,4.415,0,0,0-2.074,4.07v2h-1.5a1.483,1.483,0,0,0-1.064.45,1.506,1.506,0,0,0-.437,1.07l0,2.25a1.512,1.512,0,0,0,1.5,1.51h1.488l0,9.78a1.5,1.5,0,0,0,1.5,1.51h2.25a1.5,1.5,0,0,0,1.5-1.51v-9.78h1.774a1.512,1.512,0,0,0,1.441-1.09l0.529-2.25a1.515,1.515,0,0,0-1.441-1.94h-2.291v-1.48h1.493a1.5,1.5,0,0,0,1.5-1.5l0.011-2.19c0-.03,0-0.05,0-0.08a1.507,1.507,0,0,0-1.5-1.51h-2.105Z" transform="translate(-528.438 -2110.53)"/>
</svg>
