<svg xmlns="http://www.w3.org/2000/svg" width="23.625" height="23.91" viewBox="0 0 23.625 23.91">
  <metadata><?xpacket begin="﻿" id="W5M0MpCehiHzreSzNTczkc9d"?>
<x:xmpmeta xmlns:x="adobe:ns:meta/" x:xmptk="Adobe XMP Core 5.6-c142 79.160924, 2017/07/13-01:06:39        ">
   <rdf:RDF xmlns:rdf="http://www.w3.org/1999/02/22-rdf-syntax-ns#">
      <rdf:Description rdf:about=""/>
   </rdf:RDF>
</x:xmpmeta>
                                                                                                    
                                                                                                    
                                                                                                    
                                                                                                    
                                                                                                    
                                                                                                    
                                                                                                    
                                                                                                    
                                                                                                    
                                                                                                    
                                                                                                    
                                                                                                    
                                                                                                    
                                                                                                    
                                                                                                    
                                                                                                    
                                                                                                    
                                                                                                    
                                                                                                    
                                                                                                    
                           
<?xpacket end="w"?></metadata>
<defs>
    <style>
      .cls-1 {
        fill: #fff;
        fill-rule: evenodd;
      }
    </style>
  </defs>
  <path id="dribbble" class="cls-1" d="M585.254,2134.43a11.951,11.951,0,1,1,11.809-11.95A11.893,11.893,0,0,1,585.254,2134.43Zm0-22.4a10.456,10.456,0,1,0,10.333,10.45A10.4,10.4,0,0,0,585.254,2112.03ZM590,2133.34a0.744,0.744,0,0,1-.736-0.69,33.977,33.977,0,0,0-3.575-11.53c-3.136-6.1-5.272-8.42-5.293-8.44a0.759,0.759,0,0,1,.027-1.06,0.733,0.733,0,0,1,1.042.03c0.092,0.1,2.283,2.46,5.533,8.78a34.8,34.8,0,0,1,3.739,12.11,0.742,0.742,0,0,1-.68.8H590Zm-13.024-11.24a15.96,15.96,0,0,1-2.593-.17,0.745,0.745,0,0,1,.237-1.47,25.157,25.157,0,0,0,10.863-1.29c5.761-1.92,6.478-5.05,6.485-5.08a0.738,0.738,0,0,1,1.45.28c-0.03.16-.8,3.99-7.472,6.22A28.345,28.345,0,0,1,576.972,2122.1Zm1.156,9.22a0.766,0.766,0,0,1-.3-0.06,0.749,0.749,0,0,1-.38-0.98c0.07-.17,1.787-4.01,7.206-6.5a16.182,16.182,0,0,1,11.437-.89,0.746,0.746,0,0,1-.489,1.41h0a15,15,0,0,0-10.34.84c-4.907,2.25-6.446,5.7-6.462,5.73A0.725,0.725,0,0,1,578.128,2131.32Z" transform="translate(-573.438 -2110.53)"/>
</svg>
