<svg xmlns="http://www.w3.org/2000/svg" width="22.531" height="18.32"><path d="M15.075 1.42a4.069 4.069 0 012.951 1.24 8.315 8.315 0 002.566-.95 3.941 3.941 0 01-1.777 2.16 7.882 7.882 0 002.322-.62 7.991 7.991 0 01-2.017 2.03c.007.17.011.34.011.51a11.238 11.238 0 01-11.5 11.14 11.719 11.719 0 01-6.2-1.76c.316.03.637.05.964.05a8.224 8.224 0 005.021-1.68 4.026 4.026 0 01-3.776-2.71 4.732 4.732 0 00.761.07 4.15 4.15 0 001.064-.14 3.951 3.951 0 01-3.243-3.84v-.05a4.042 4.042 0 001.832.49 3.88 3.88 0 01-1.8-3.26 3.772 3.772 0 01.548-1.96 11.658 11.658 0 008.332 4.09 3.854 3.854 0 01-.105-.89 3.98 3.98 0 014.043-3.92m-.003-1.4a5.409 5.409 0 00-5.4 4.61 10.138 10.138 0 01-5.792-3.4 1.4 1.4 0 00-1.076-.5.418.418 0 00-.111.01 1.381 1.381 0 00-1.094.67 5.215 5.215 0 00-.42 4.52 1.417 1.417 0 00-.363.94v.05a5.25 5.25 0 001.45 3.61 1.418 1.418 0 00.039.74 5.3 5.3 0 001.616 2.38 7.016 7.016 0 01-1.525.17 6.777 6.777 0 01-.8-.05.953.953 0 00-.168-.01 1.406 1.406 0 00-.742 2.6 13.137 13.137 0 006.939 1.97A12.6 12.6 0 0020.53 5.97a9.458 9.458 0 001.724-1.87 1.387 1.387 0 00.285-.85A7.881 7.881 0 0121.473.62a1.406 1.406 0 00-.888-.32 1.47 1.47 0 00-.7.19 6.529 6.529 0 01-1.486.63 5.56 5.56 0 00-3.328-1.1z" fill="#fff" fill-rule="evenodd"/></svg>