<svg xmlns="http://www.w3.org/2000/svg" width="23.625" height="23.91"><path d="M11.816 23.9a11.951 11.951 0 1111.809-11.95A11.893 11.893 0 0111.816 23.9zm0-22.4a10.456 10.456 0 1010.333 10.45A10.4 10.4 0 0011.816 1.5zm4.746 21.31a.744.744 0 01-.736-.69 33.977 33.977 0 00-3.575-11.53c-3.136-6.1-5.272-8.42-5.293-8.44a.759.759 0 01.027-1.06.733.733 0 011.042.03c.092.1 2.283 2.46 5.533 8.78a34.8 34.8 0 013.739 12.11.742.742 0 01-.68.8h-.057zM3.538 11.57a15.96 15.96 0 01-2.593-.17.745.745 0 01.237-1.47 25.157 25.157 0 0010.863-1.29c5.761-1.92 6.478-5.05 6.485-5.08a.738.738 0 011.45.28c-.03.16-.8 3.99-7.472 6.22a28.345 28.345 0 01-8.974 1.51zm1.156 9.22a.766.766 0 01-.3-.06.749.749 0 01-.38-.98c.07-.17 1.787-4.01 7.206-6.5a16.182 16.182 0 0111.437-.89.746.746 0 01-.489 1.41 15 15 0 00-10.34.84c-4.907 2.25-6.446 5.7-6.462 5.73a.725.725 0 01-.676.45z" fill="#fff" fill-rule="evenodd"/></svg>