<svg xmlns="http://www.w3.org/2000/svg" width="12.093" height="23.35"><path d="M7.679 1.52h2.1l-.011 2.26H7.821a.927.927 0 00-1.047.92v3.58h3.792l-.529 2.26H6.762v11.29h-2.25V10.54h-2.99l-.006-2.26h3V4.77a2.988 2.988 0 013.166-3.25M7.677.01A5.146 5.146 0 005.083.7a4.415 4.415 0 00-2.074 4.07v2h-1.5a1.483 1.483 0 00-1.064.45 1.506 1.506 0 00-.437 1.07v2.25a1.512 1.512 0 001.5 1.51h1.488v9.78a1.5 1.5 0 001.5 1.51h2.25a1.5 1.5 0 001.5-1.51v-9.78h1.774a1.512 1.512 0 001.441-1.09l.529-2.25a1.515 1.515 0 00-1.441-1.94H8.258V5.29h1.493a1.5 1.5 0 001.5-1.5l.011-2.19v-.08a1.507 1.507 0 00-1.5-1.51H7.657z" fill="#fff" fill-rule="evenodd"/></svg>